<svg width="234" height="271" viewBox="0 0 234 271" fill="none" xmlns="http://www.w3.org/2000/svg">
<g filter="url(#filter0_f_1_32)">
<path d="M116.684 182.2C132.407 182.2 145.153 169.709 145.153 154.301C145.153 138.892 132.407 126.401 116.684 126.401C100.961 126.401 88.215 138.892 88.215 154.301C88.215 169.709 100.961 182.2 116.684 182.2Z" fill="url(#paint0_linear_1_32)"/>
</g>
<path d="M116.684 182.2C132.407 182.2 145.153 169.709 145.153 154.301C145.153 138.892 132.407 126.401 116.684 126.401C100.961 126.401 88.215 138.892 88.215 154.301C88.215 169.709 100.961 182.2 116.684 182.2Z" fill="url(#paint1_linear_1_32)"/>
<g filter="url(#filter1_b_1_32)">
<path d="M174.043 104.042V59.2645C174.043 26.5373 147.594 0 114.976 0C82.3574 0 55.9084 26.5373 55.9084 59.2645V104.042C55.9084 107.677 52.9682 110.627 49.3454 110.627C38.1095 110.627 29 119.767 29 131.04C29 142.314 38.1095 151.454 49.3454 151.454H180.606C191.842 151.454 200.951 142.314 200.951 131.04C200.951 119.767 191.842 110.627 180.606 110.627C176.983 110.627 174.043 107.677 174.043 104.042Z" fill="url(#paint2_linear_1_32)"/>
<path d="M173.043 59.2645V104.042C173.043 108.226 176.428 111.627 180.606 111.627C191.286 111.627 199.951 120.316 199.951 131.04C199.951 141.765 191.286 150.454 180.606 150.454H49.3454C38.6649 150.454 30 141.765 30 131.04C30 120.316 38.6649 111.627 49.3454 111.627C53.5236 111.627 56.9084 108.226 56.9084 104.042V59.2645C56.9084 27.0865 82.9128 1 114.976 1C147.038 1 173.043 27.0865 173.043 59.2645Z" stroke="url(#paint3_linear_1_32)" stroke-width="2"/>
</g>
<defs>
<filter id="filter0_f_1_32" x="0.215008" y="38.4014" width="232.938" height="231.799" filterUnits="userSpaceOnUse" color-interpolation-filters="sRGB">
<feFlood flood-opacity="0" result="BackgroundImageFix"/>
<feBlend mode="normal" in="SourceGraphic" in2="BackgroundImageFix" result="shape"/>
<feGaussianBlur stdDeviation="44" result="effect1_foregroundBlur_1_32"/>
</filter>
<filter id="filter1_b_1_32" x="11" y="-18" width="207.951" height="187.454" filterUnits="userSpaceOnUse" color-interpolation-filters="sRGB">
<feFlood flood-opacity="0" result="BackgroundImageFix"/>
<feGaussianBlur in="BackgroundImageFix" stdDeviation="9"/>
<feComposite in2="SourceAlpha" operator="in" result="effect1_backgroundBlur_1_32"/>
<feBlend mode="normal" in="SourceGraphic" in2="effect1_backgroundBlur_1_32" result="shape"/>
</filter>
<linearGradient id="paint0_linear_1_32" x1="88.215" y1="154.301" x2="145.153" y2="154.301" gradientUnits="userSpaceOnUse">
<stop stop-color="#FFDC4A"/>
<stop offset="1" stop-color="#F37322"/>
</linearGradient>
<linearGradient id="paint1_linear_1_32" x1="88.215" y1="154.301" x2="145.153" y2="154.301" gradientUnits="userSpaceOnUse">
<stop stop-color="#FFDC4A"/>
<stop offset="1" stop-color="#F37322"/>
</linearGradient>
<linearGradient id="paint2_linear_1_32" x1="38.7076" y1="142.903" x2="171.985" y2="-8.41207" gradientUnits="userSpaceOnUse">
<stop stop-color="white" stop-opacity="0.2"/>
<stop offset="1" stop-color="white" stop-opacity="0.49"/>
</linearGradient>
<linearGradient id="paint3_linear_1_32" x1="41.1378" y1="11.9116" x2="165.675" y2="163.092" gradientUnits="userSpaceOnUse">
<stop stop-color="white"/>
<stop offset="1" stop-color="white" stop-opacity="0"/>
</linearGradient>
</defs>
</svg>
